<svg width="100" height="100" viewBox="0 0 100 100" fill="none" xmlns="http://www.w3.org/2000/svg">
<path d="M86.916 42.2745C86.916 34.151 79.5197 28.3677 72.1905 30.5582C69.8432 25.4816 64.9264 22 59.2078 22C51.4831 22 45.1568 28.4142 44.8085 36.4367C37.6532 38.1497 33.1187 45.6197 34.6282 53.1228C34.7324 53.6406 35.3295 53.8441 35.7011 53.4867C38.0714 51.207 41.253 50.0136 44.5475 50.2796C44.7703 50.2976 44.9871 50.1911 45.1159 49.9994C45.9559 48.7502 46.9802 47.6343 48.1479 46.712C56.3903 40.2016 68.3471 44.9956 70.3634 55.5741C70.4051 55.7932 70.5495 55.9767 70.7466 56.061C74.0779 57.4844 76.7881 60.3217 78.1205 63.9282C78.2167 64.1889 78.4561 64.3599 78.7223 64.3599H84.7286C90.5439 64.3599 95.3678 59.4995 95.4603 53.3943C95.5442 47.8521 91.7966 43.2831 86.916 42.2745Z" fill="#2B322C"/>
<path d="M66.4554 58.3719C66.972 52.26 62.3836 47.0596 56.5923 47.0596C52.1234 47.0596 48.3462 50.1639 47.1141 54.4282C41.4818 51.3977 34.9012 56.5417 36.1774 63.1349C32.0001 63.1349 29.1689 66.5452 29.1689 70.3238C29.1689 74.2974 32.2414 77.5128 36.0247 77.5128H65.7334C70.7795 77.5128 74.8746 73.2239 74.8746 67.9275C74.8746 62.8885 71.1663 58.7578 66.4554 58.3719Z" fill="#2B322C"/>
<path d="M30.9072 58.5059C28.396 51.6035 29.973 43.9422 34.5641 38.7305C32.6899 38.818 30.8294 39.2999 29.0938 40.176C22.1008 43.7058 19.1464 52.5513 22.5082 59.894C23.4362 61.921 24.7571 63.6552 26.3653 65.0134C27.3464 62.5302 28.8844 60.2831 30.9072 58.5059Z" fill="#2B322C"/>
<path d="M18.7168 61.7289C18.2334 60.6731 17.0267 60.2288 16.0212 60.7363L12.3803 62.5741C11.3748 63.0816 10.9517 64.3486 11.435 65.4044C11.9182 66.4597 13.1251 66.9045 14.1306 66.397L17.7715 64.5592C18.777 64.0517 19.1999 62.7842 18.7168 61.7289Z" fill="#2B322C"/>
<path d="M23.6656 28.4834C22.6601 28.9909 22.237 30.2579 22.7203 31.3137L24.5289 35.264C25.0123 36.3198 26.219 36.7642 27.2245 36.2566C28.23 35.7491 28.6532 34.4821 28.1698 33.4263L26.3612 29.4759C25.8778 28.4201 24.6711 27.9758 23.6656 28.4834Z" fill="#2B322C"/>
<path d="M16.1077 37.3295C15.1861 36.669 13.9296 36.9177 13.3003 37.885C12.6717 38.8524 12.9082 40.172 13.8298 40.8325L17.2773 43.3042C17.8951 43.7473 18.6639 43.7809 19.293 43.4633C19.6016 43.3075 19.8767 43.067 20.084 42.7485C20.7133 41.7813 20.4761 40.4615 19.5552 39.8012L16.1077 37.3295Z" fill="#2B322C"/>
<path d="M10.6624 53.7426L14.825 54.0731C15.1909 54.1023 15.5421 54.0268 15.8507 53.871C16.4798 53.5534 16.935 52.902 16.9913 52.1187C17.0756 50.9503 16.2419 49.9323 15.1297 49.8435L10.9671 49.513C9.85442 49.4245 8.88487 50.2999 8.801 51.468C8.71644 52.6358 9.54996 53.6545 10.6624 53.7426Z" fill="#2B322C"/>
<path d="M22.1504 69.9105L19.7964 73.5303C19.1671 74.4976 19.4042 75.8173 20.3256 76.4774C20.9437 76.921 21.712 76.9548 22.3416 76.637C22.6502 76.4812 22.9253 76.2406 23.1326 75.9222L25.4866 72.3023C26.1154 71.3353 25.8787 70.0153 24.9571 69.3548C24.0361 68.6945 22.779 68.943 22.1504 69.9105Z" fill="#2B322C"/>
<path d="M37.1188 25.7834C36.0064 25.6954 35.0366 26.5703 34.9522 27.7386L34.6375 32.1093C34.5534 33.2769 35.3869 34.2957 36.4993 34.3837C36.8657 34.4127 37.2164 34.3374 37.525 34.1816C38.1541 33.8641 38.6091 33.2122 38.6657 32.4293L38.9804 28.0585C39.0648 26.8902 38.2315 25.872 37.1188 25.7834Z" fill="#2B322C"/>
</svg>
