<svg width="100" height="100" viewBox="0 0 100 100" fill="none" xmlns="http://www.w3.org/2000/svg">
<path d="M72.8516 43.1445C72.0357 43.1445 71.227 43.2052 70.4283 43.3272C69.3958 35.497 62.6778 29.4336 54.5703 29.4336C45.7498 29.4336 38.5742 36.6092 38.5742 45.4297C38.5742 46.1997 38.6284 46.9626 38.7361 47.7154C38.6819 47.7148 38.6284 47.7148 38.5742 47.7148C31.0142 47.7148 24.8633 53.8651 24.8633 61.4258C24.8633 68.9858 31.0142 75.1361 38.5742 75.1361H72.8516C81.6714 75.1361 88.847 67.9605 88.847 59.1406C88.847 50.3202 81.6714 43.1445 72.8516 43.1445Z" fill="white"/>
<path d="M39.4168 79.9348C38.2808 79.3849 36.9145 79.8604 36.3646 80.9964L34.0795 85.7191C33.5296 86.8551 34.0051 88.2215 35.1411 88.7713C35.4619 88.9267 35.8011 88.9998 36.1349 88.9998C36.9835 88.9998 37.7988 88.525 38.1933 87.7097L40.4785 82.987C41.0284 81.851 40.5529 80.4841 39.4168 79.9348Z" fill="white"/>
<path d="M50.995 79.9348C49.8589 79.3849 48.4926 79.8604 47.9427 80.9964L45.6576 85.7191C45.1077 86.8551 45.5832 88.2215 46.7192 88.7713C47.04 88.9267 47.3792 88.9998 47.713 88.9998C48.5616 88.9998 49.3769 88.525 49.7715 87.7097L52.0566 82.987C52.6065 81.851 52.131 80.4841 50.995 79.9348Z" fill="white"/>
<path d="M62.5731 79.9348C61.437 79.3849 60.0707 79.8604 59.5208 80.9964L57.2357 85.7191C56.6864 86.8551 57.1613 88.2215 58.2973 88.7713C58.6181 88.9267 58.9573 88.9998 59.2911 88.9998C60.1397 88.9998 60.955 88.525 61.3496 87.7097L63.6347 82.987C64.1846 81.851 63.7091 80.4841 62.5731 79.9348Z" fill="white"/>
<path d="M74.1512 79.9348C73.0152 79.3849 71.6483 79.8604 71.099 80.9964L68.8138 85.7191C68.264 86.8551 68.7394 88.2215 69.8755 88.7713C70.1962 88.9267 70.5354 88.9998 70.8693 88.9998C71.7179 88.9998 72.5332 88.525 72.9277 87.7097L75.2129 82.987C75.7627 81.851 75.2873 80.4841 74.1512 79.9348Z" fill="white"/>
<path d="M34.0753 43.7045C34.7371 35.7707 39.9215 29.1039 47.0358 26.2933C45.0839 25.4596 42.9618 25.0156 40.7832 25.0156C32.005 25.0156 24.8633 32.1573 24.8633 40.9355C24.8633 43.3588 25.4006 45.6903 26.4064 47.7976C28.5659 45.8671 31.1832 44.4389 34.0753 43.7045Z" fill="white"/>
<path d="M20.1406 40.8594C20.1406 39.5972 19.1177 38.5742 17.8555 38.5742H13.2852C12.023 38.5742 11 39.5972 11 40.8594C11 42.121 12.023 43.1445 13.2852 43.1445H17.8555C19.1177 43.1445 20.1406 42.121 20.1406 40.8594Z" fill="white"/>
<path d="M40.707 11C39.4448 11 38.4218 12.023 38.4218 13.2852V18.0078C38.4218 19.27 39.4448 20.293 40.707 20.293C41.9692 20.293 42.9922 19.27 42.9922 18.0078V13.2852C42.9922 12.023 41.9692 11 40.707 11Z" fill="white"/>
<path d="M28.8712 15.8853C28.2398 14.7921 26.8426 14.4178 25.7494 15.0486C24.6568 15.68 24.2819 17.0773 24.9133 18.1705L27.2746 22.2605C27.6977 22.9937 28.466 23.4031 29.2557 23.4031C29.6431 23.4031 30.0358 23.3043 30.3958 23.0966C31.489 22.4658 31.8633 21.068 31.2325 19.9754L28.8712 15.8853Z" fill="white"/>
<path d="M15.6566 29.1553L19.7467 31.5166C20.1061 31.7243 20.4995 31.8231 20.8869 31.8231C21.6766 31.8231 22.4448 31.4136 22.8679 30.6805C23.4993 29.5873 23.1244 28.19 22.0318 27.5586L17.9418 25.1973C16.8486 24.5659 15.4513 24.9408 14.8205 26.034C14.1891 27.1266 14.5634 28.5245 15.6566 29.1553Z" fill="white"/>
<path d="M19.8228 50.4864L15.7328 52.8477C14.6396 53.4785 14.2653 54.8764 14.8967 55.969C15.3198 56.7027 16.0874 57.1121 16.8777 57.1121C17.2651 57.1121 17.6579 57.0134 18.0179 56.8057L22.108 54.4443C23.2006 53.8135 23.5755 52.4157 22.9441 51.3225C22.3133 50.2299 20.9154 49.855 19.8228 50.4864Z" fill="white"/>
<path d="M55.6849 14.9724C54.5917 14.3416 53.1944 14.7159 52.563 15.8091L50.2017 19.8992C49.5709 20.9918 49.9452 22.3897 51.0384 23.0205C51.3984 23.2281 51.7912 23.3269 52.1786 23.3269C52.9683 23.3269 53.7365 22.9169 54.1596 22.1844L56.521 18.0943C57.1524 17.0011 56.778 15.6038 55.6849 14.9724Z" fill="white"/>
</svg>
