<svg width="100" height="100" viewBox="0 0 100 100" fill="none" xmlns="http://www.w3.org/2000/svg">
<path d="M79.8125 42.009C79.8125 32.7898 70.999 26.2265 62.2653 28.7124C59.4682 22.9512 53.6093 19 46.7949 19C37.59 19 30.0515 26.2793 29.6365 35.3839C21.1101 37.3279 15.7067 45.8054 17.5054 54.3204C17.6296 54.9081 18.3412 55.1391 18.784 54.7334C21.6084 52.1462 25.3997 50.7918 29.3254 51.0938C29.591 51.1141 29.8492 50.9933 30.0028 50.7758C31.0038 49.358 32.2243 48.0916 33.6157 47.045C43.4375 39.6566 57.6854 45.0971 60.0882 57.1024C60.1379 57.3509 60.3099 57.5592 60.5447 57.6549C64.5144 59.2703 67.7439 62.4903 69.3316 66.5832C69.4462 66.879 69.7315 67.0731 70.0487 67.0731H77.206C84.1355 67.0731 89.8838 61.5571 89.994 54.6285C90.094 48.3388 85.6283 43.1537 79.8125 42.009Z" fill="white"/>
<path d="M55.4313 60.2775C56.0469 53.3413 50.5792 47.4395 43.6782 47.4395C38.353 47.4395 33.8521 50.9625 32.3839 55.8019C25.6723 52.3626 17.8308 58.2004 19.3515 65.6829C14.3738 65.6829 11 69.5531 11 73.8414C11 78.3509 14.6613 82 19.1696 82H54.571C60.5839 82 65.4637 77.1327 65.4637 71.1219C65.4637 65.4032 61.0449 60.7155 55.4313 60.2775Z" fill="white"/>
</svg>
