<svg width="100" height="100" viewBox="0 0 100 100" fill="none" xmlns="http://www.w3.org/2000/svg">
<path d="M54.4512 48.177C59.5441 47.5375 64.5661 49.5872 67.7868 53.5546C68.0232 53.8458 68.4451 53.9095 68.748 53.6883C70.207 52.6223 71.4631 51.2904 72.448 49.753C78.586 40.1762 71.7699 27.25 60.125 27.25C52.5262 27.25 46.263 33.0734 45.566 40.4922C45.5378 40.7919 45.7034 41.0781 45.9787 41.1997C49.1575 42.6057 51.8733 44.9222 53.781 47.8673C53.9256 48.0908 54.1873 48.21 54.4512 48.177Z" fill="white"/>
<path d="M60.125 25C61.3677 25 62.375 23.9926 62.375 22.75V18.25C62.375 17.0074 61.3677 16 60.125 16C58.8823 16 57.875 17.0074 57.875 18.25V22.75C57.875 23.9926 58.8823 25 60.125 25Z" fill="white"/>
<path d="M83.75 39.625H79.25C78.0073 39.625 77 40.6324 77 41.875C77 43.1176 78.0073 44.125 79.25 44.125H83.75C84.9927 44.125 86 43.1176 86 41.875C86 40.6324 84.9927 39.625 83.75 39.625Z" fill="white"/>
<path d="M75.2394 53.8074C74.3609 52.9288 72.9362 52.9288 72.0575 53.8074C71.1787 54.6862 71.1787 56.1107 72.0575 56.9893L75.2394 60.1712C75.6787 60.6107 76.2544 60.8304 76.8303 60.8304C78.817 60.8304 79.8426 58.4106 78.4211 56.9895L75.2394 53.8074Z" fill="white"/>
<path d="M45.0106 29.9427C45.8892 30.8215 47.3138 30.8215 48.1925 29.9427C49.0713 29.064 49.0713 27.6394 48.1925 26.7608L45.0106 23.5789C44.1323 22.7003 42.7076 22.7003 41.8287 23.5789C40.9499 24.4577 40.9499 25.8822 41.8287 26.7608L45.0106 29.9427Z" fill="white"/>
<path d="M73.6485 30.6009C74.2243 30.6009 74.8 30.3813 75.2394 29.9418L78.4213 26.7599C79.3 25.8811 79.3 24.4566 78.4213 23.578C77.5426 22.6993 76.118 22.6992 75.2394 23.578L72.0576 26.76C70.6358 28.1816 71.662 30.6009 73.6485 30.6009Z" fill="white"/>
<path d="M66.387 64.9375C68.1216 56.3911 59.1714 49.802 51.5813 53.6967C49.9131 48.1914 44.8 44.1836 38.75 44.1836C30.8983 44.1836 24.6996 50.9081 25.3977 58.7883C19.02 59.2866 14 64.6194 14 71.125C14 77.9405 19.5216 83.5 26.375 83.5H66.5938C71.7197 83.5 75.875 79.3446 75.875 74.2187C75.875 69.3196 72.02 64.9375 66.387 64.9375Z" fill="white"/>
</svg>
