<svg width="100" height="100" viewBox="0 0 100 100" fill="none" xmlns="http://www.w3.org/2000/svg">
<path d="M77.332 34.8452C77.332 26.0923 68.9642 19.861 60.6723 22.2212C58.0167 16.7513 52.4541 13 45.9843 13C37.2451 13 30.0879 19.9111 29.6938 28.5552C21.5987 30.4009 16.4687 38.4496 18.1764 46.5339C18.2943 47.0918 18.9699 47.3111 19.3903 46.926C22.0718 44.4696 25.6714 43.1838 29.3985 43.4705C29.6506 43.4898 29.8958 43.3751 30.0416 43.1686C30.992 41.8225 32.1508 40.6202 33.4718 39.6264C42.7968 32.6117 56.3241 37.7771 58.6053 49.1751C58.6524 49.4111 58.8158 49.6089 59.0387 49.6997C62.8076 51.2334 65.8738 54.2905 67.3811 58.1764C67.49 58.4573 67.7608 58.6415 68.062 58.6415H74.8572C81.4363 58.6415 86.8939 53.4046 86.9984 46.8264C87.0934 40.8548 82.8535 35.932 77.332 34.8452Z" fill="#2B322C"/>
<path d="M54.1839 52.1896C54.7684 45.6043 49.5773 40.001 43.0254 40.001C37.9694 40.001 33.6962 43.3458 32.3023 47.9404C25.9302 44.6751 18.4853 50.2177 19.929 57.3217C15.2032 57.3217 12 60.9961 12 65.0675C12 69.3489 15.4761 72.8134 19.7563 72.8134H53.3671C59.0759 72.8134 63.7089 68.1923 63.7089 62.4856C63.7089 57.0561 59.5136 52.6055 54.1839 52.1896Z" fill="#2B322C"/>
<path d="M23.5661 78.2287C22.4301 77.6789 21.0638 78.1544 20.5139 79.2904L18.2287 84.013C17.6789 85.1491 18.1544 86.5154 19.2904 87.0653C19.6111 87.2206 19.9504 87.2938 20.2842 87.2938C21.1328 87.2938 21.9481 86.8189 22.3426 86.0036L24.6278 81.281C25.1776 80.1449 24.7022 78.778 23.5661 78.2287Z" fill="#2B322C"/>
<path d="M35.1442 78.2287C34.0082 77.6789 32.6419 78.1544 32.092 79.2904L29.8068 84.013C29.257 85.1491 29.7325 86.5154 30.8685 87.0653C31.1892 87.2206 31.5284 87.2938 31.8623 87.2938C32.7109 87.2938 33.5262 86.8189 33.9207 86.0036L36.2059 81.281C36.7557 80.1449 36.2803 78.778 35.1442 78.2287Z" fill="#2B322C"/>
<path d="M46.7223 78.2287C45.5863 77.6789 44.22 78.1544 43.6701 79.2904L41.385 84.013C40.8357 85.1491 41.3106 86.5154 42.4466 87.0653C42.7674 87.2206 43.1066 87.2938 43.4404 87.2938C44.289 87.2938 45.1043 86.8189 45.4988 86.0036L47.784 81.281C48.3339 80.1449 47.8584 78.778 46.7223 78.2287Z" fill="#2B322C"/>
<path d="M69.5659 60.2287C68.4298 59.6789 67.0635 60.1544 66.5136 61.2904L64.2285 66.013C63.6792 67.1491 64.1541 68.5154 65.2901 69.0653C65.6109 69.2206 65.9501 69.2938 66.2839 69.2938C67.1325 69.2938 67.9478 68.8189 68.3424 68.0036L70.6275 63.281C71.1774 62.1449 70.7019 60.778 69.5659 60.2287Z" fill="#2B322C"/>
<path d="M58.3005 78.2287C57.1644 77.6789 55.7975 78.1544 55.2482 79.2904L52.9631 84.013C52.4132 85.1491 52.8887 86.5154 54.0247 87.0653C54.3455 87.2206 54.6847 87.2938 55.0185 87.2938C55.8671 87.2938 56.6824 86.8189 57.0769 86.0036L59.3621 81.281C59.912 80.1449 59.4365 78.778 58.3005 78.2287Z" fill="#2B322C"/>
<path d="M79.5661 60.2287C78.4301 59.6789 77.0632 60.1544 76.5139 61.2904L74.2287 66.013C73.6789 67.1491 74.1544 68.5154 75.2904 69.0653C75.6111 69.2206 75.9504 69.2938 76.2842 69.2938C77.1328 69.2938 77.9481 68.8189 78.3426 68.0036L80.6278 63.281C81.1776 62.1449 80.7022 60.778 79.5661 60.2287Z" fill="#2B322C"/>
</svg>
